<svg id="visual" viewBox="0 0 1920 1080" width="1920" height="1080" xmlns="http://www.w3.org/2000/svg" xmlns:xlink="http://www.w3.org/1999/xlink" version="1.1"><rect x="0" y="0" width="1920" height="1080" fill="#101010"></rect><path d="M0 708L192 732L384 752L576 711L768 759L960 751L1152 704L1344 730L1536 721L1728 770L1920 680L1920 1081L1728 1081L1536 1081L1344 1081L1152 1081L960 1081L768 1081L576 1081L384 1081L192 1081L0 1081Z" fill="#2e2d4d"></path><path d="M0 784L192 753L384 760L576 788L768 772L960 808L1152 809L1344 800L1536 758L1728 820L1920 833L1920 1081L1728 1081L1536 1081L1344 1081L1152 1081L960 1081L768 1081L576 1081L384 1081L192 1081L0 1081Z" fill="#4a486f"></path><path d="M0 859L192 864L384 893L576 861L768 836L960 879L1152 856L1344 828L1536 853L1728 836L1920 888L1920 1081L1728 1081L1536 1081L1344 1081L1152 1081L960 1081L768 1081L576 1081L384 1081L192 1081L0 1081Z" fill="#676594"></path><path d="M0 934L192 939L384 913L576 892L768 920L960 905L1152 895L1344 915L1536 909L1728 942L1920 917L1920 1081L1728 1081L1536 1081L1344 1081L1152 1081L960 1081L768 1081L576 1081L384 1081L192 1081L0 1081Z" fill="#8583bb"></path><path d="M0 1006L192 1008L384 983L576 986L768 969L960 970L1152 1005L1344 1012L1536 990L1728 962L1920 964L1920 1081L1728 1081L1536 1081L1344 1081L1152 1081L960 1081L768 1081L576 1081L384 1081L192 1081L0 1081Z" fill="#a5a3e3"></path></svg>