<svg id="visual" viewBox="0 0 960 540" width="960" height="540" xmlns="http://www.w3.org/2000/svg" xmlns:xlink="http://www.w3.org/1999/xlink" version="1.1"><rect x="0" y="0" width="960" height="540" fill="#101010"></rect><path d="M0 382L137 405L274 376L411 386L549 371L686 423L823 428L960 429L960 541L823 541L686 541L549 541L411 541L274 541L137 541L0 541Z" fill="#004e26"></path><path d="M0 449L137 434L274 452L411 398L549 429L686 391L823 398L960 417L960 541L823 541L686 541L549 541L411 541L274 541L137 541L0 541Z" fill="#093d1e"></path><path d="M0 431L137 461L274 465L411 456L549 422L686 469L823 470L960 432L960 541L823 541L686 541L549 541L411 541L274 541L137 541L0 541Z" fill="#0c2c16"></path><path d="M0 457L137 477L274 460L411 492L549 496L686 455L823 454L960 468L960 541L823 541L686 541L549 541L411 541L274 541L137 541L0 541Z" fill="#0b1d0e"></path><path d="M0 507L137 511L274 510L411 491L549 487L686 513L823 508L960 496L960 541L823 541L686 541L549 541L411 541L274 541L137 541L0 541Z" fill="#000c01"></path></svg>