<svg id="visual" viewBox="0 0 960 540" width="960" height="540" xmlns="http://www.w3.org/2000/svg" xmlns:xlink="http://www.w3.org/1999/xlink" version="1.1"><path d="M0 147L53 147L53 120L107 120L107 98L160 98L160 141L213 141L213 163L267 163L267 136L320 136L320 98L373 98L373 141L427 141L427 114L480 114L480 114L533 114L533 109L587 109L587 114L640 114L640 131L693 131L693 158L747 158L747 174L800 174L800 109L853 109L853 141L907 141L907 195L960 195L960 158L960 0L960 0L907 0L907 0L853 0L853 0L800 0L800 0L747 0L747 0L693 0L693 0L640 0L640 0L587 0L587 0L533 0L533 0L480 0L480 0L427 0L427 0L373 0L373 0L320 0L320 0L267 0L267 0L213 0L213 0L160 0L160 0L107 0L107 0L53 0L53 0L0 0Z" fill="#00221b"></path><path d="M0 190L53 190L53 163L107 163L107 163L160 163L160 195L213 195L213 222L267 222L267 201L320 201L320 158L373 158L373 190L427 190L427 174L480 174L480 163L533 163L533 174L587 174L587 174L640 174L640 174L693 174L693 222L747 222L747 233L800 233L800 158L853 158L853 190L907 190L907 255L960 255L960 217L960 156L960 193L907 193L907 139L853 139L853 107L800 107L800 172L747 172L747 156L693 156L693 129L640 129L640 112L587 112L587 107L533 107L533 112L480 112L480 112L427 112L427 139L373 139L373 96L320 96L320 134L267 134L267 161L213 161L213 139L160 139L160 96L107 96L107 118L53 118L53 145L0 145Z" fill="#011f19"></path><path d="M0 293L53 293L53 249L107 249L107 244L160 244L160 287L213 287L213 303L267 303L267 298L320 298L320 271L373 271L373 266L427 266L427 260L480 260L480 249L533 249L533 249L587 249L587 233L640 233L640 255L693 255L693 287L747 287L747 330L800 330L800 222L853 222L853 282L907 282L907 314L960 314L960 309L960 215L960 253L907 253L907 188L853 188L853 156L800 156L800 231L747 231L747 220L693 220L693 172L640 172L640 172L587 172L587 172L533 172L533 161L480 161L480 172L427 172L427 188L373 188L373 156L320 156L320 199L267 199L267 220L213 220L213 193L160 193L160 161L107 161L107 161L53 161L53 188L0 188Z" fill="#011c17"></path><path d="M0 411L53 411L53 428L107 428L107 395L160 395L160 433L213 433L213 406L267 406L267 411L320 411L320 428L373 428L373 401L427 401L427 406L480 406L480 438L533 438L533 406L587 406L587 428L640 428L640 428L693 428L693 417L747 417L747 428L800 428L800 390L853 390L853 390L907 390L907 428L960 428L960 417L960 307L960 312L907 312L907 280L853 280L853 220L800 220L800 328L747 328L747 285L693 285L693 253L640 253L640 231L587 231L587 247L533 247L533 247L480 247L480 258L427 258L427 264L373 264L373 269L320 269L320 296L267 296L267 301L213 301L213 285L160 285L160 242L107 242L107 247L53 247L53 291L0 291Z" fill="#011a15"></path><path d="M0 476L53 476L53 482L107 482L107 471L160 471L160 498L213 498L213 471L267 471L267 482L320 482L320 498L373 498L373 482L427 482L427 492L480 492L480 503L533 503L533 487L587 487L587 476L640 476L640 487L693 487L693 476L747 476L747 503L800 503L800 476L853 476L853 476L907 476L907 487L960 487L960 476L960 415L960 426L907 426L907 388L853 388L853 388L800 388L800 426L747 426L747 415L693 415L693 426L640 426L640 426L587 426L587 404L533 404L533 436L480 436L480 404L427 404L427 399L373 399L373 426L320 426L320 409L267 409L267 404L213 404L213 431L160 431L160 393L107 393L107 426L53 426L53 409L0 409Z" fill="#001713"></path><path d="M0 541L53 541L53 541L107 541L107 541L160 541L160 541L213 541L213 541L267 541L267 541L320 541L320 541L373 541L373 541L427 541L427 541L480 541L480 541L533 541L533 541L587 541L587 541L640 541L640 541L693 541L693 541L747 541L747 541L800 541L800 541L853 541L853 541L907 541L907 541L960 541L960 541L960 474L960 485L907 485L907 474L853 474L853 474L800 474L800 501L747 501L747 474L693 474L693 485L640 485L640 474L587 474L587 485L533 485L533 501L480 501L480 490L427 490L427 480L373 480L373 496L320 496L320 480L267 480L267 469L213 469L213 496L160 496L160 469L107 469L107 480L53 480L53 474L0 474Z" fill="#001410"></path></svg>